HIERARCHY
ROOT hip
{
	OFFSET 0.000000 0.000000 0.000000
	CHANNELS 6 Xposition Yposition Zposition Xrotation Zrotation Yrotation 
	JOINT abdomen
	{
		OFFSET 0.000000 3.422050 0.000000
		CHANNELS 3 Xrotation Zrotation Yrotation 
		JOINT chest
		{
			OFFSET 0.000000 8.486693 -0.684411
			CHANNELS 3 Xrotation Zrotation Yrotation 
			JOINT neck
			{
				OFFSET 0.000000 10.266162 -0.273764
				CHANNELS 3 Xrotation Zrotation Yrotation 
				JOINT head
				{
					OFFSET 0.000000 3.148285 0.000000
					CHANNELS 3 Xrotation Zrotation Yrotation 
					End Site
					{
						OFFSET 0.000000 3.148289 0.000000
					}
				}
			}
			JOINT lCollar
			{
				OFFSET 3.422053 6.707223 -0.821293
				CHANNELS 3 Yrotation Zrotation Xrotation 
				JOINT lShldr
				{
					OFFSET 3.285171 0.000000 0.000000
					CHANNELS 3 Zrotation Yrotation Xrotation 
					JOINT lForeArm
					{
						OFFSET 10.129278 0.000000 0.000000
						CHANNELS 3 Yrotation Zrotation Xrotation 
						JOINT lHand
						{
							OFFSET 8.486692 0.000000 0.000000
							CHANNELS 3 Zrotation Yrotation Xrotation 
							End Site
							{
								OFFSET 4.106464 0.000000 0.000000
							}
						}
					}
				}
			}
			JOINT rCollar
			{
				OFFSET -3.558935 6.707223 -0.821293
				CHANNELS 3 Yrotation Zrotation Xrotation 
				JOINT rShldr
				{
					OFFSET -3.148289 0.000000 0.000000
					CHANNELS 3 Zrotation Yrotation Xrotation 
					JOINT rForeArm
					{
						OFFSET -10.266159 0.000000 0.000000
						CHANNELS 3 Yrotation Zrotation Xrotation 
						JOINT rHand
						{
							OFFSET -8.349810 0.000000 0.000000
							CHANNELS 3 Zrotation Yrotation Xrotation 
							End Site
							{
								OFFSET -4.106464 0.000000 0.000000
							}
						}
					}
				}
			}
		}
	}
	JOINT lThigh
	{
		OFFSET 5.338403 -1.642589 1.368821
		CHANNELS 3 Xrotation Zrotation Yrotation 
		JOINT lShin
		{
			OFFSET -2.053232 -20.121670 0.000000
			CHANNELS 3 Xrotation Zrotation Yrotation 
			JOINT lFoot
			{
				OFFSET 0.000000 -19.300380 -1.231939
				CHANNELS 3 Xrotation Yrotation Zrotation 
				End Site
				{
					OFFSET 0.000000 -2.463878 4.653993
				}
			}
		}
	}
	JOINT rThigh
	{
		OFFSET -5.338403 -1.642589 1.368821
		CHANNELS 3 Xrotation Zrotation Yrotation 
		JOINT rShin
		{
			OFFSET 2.053232 -20.121670 0.000000
			CHANNELS 3 Xrotation Zrotation Yrotation 
			JOINT rFoot
			{
				OFFSET 0.000000 -19.300380 -1.231939
				CHANNELS 3 Xrotation Yrotation Zrotation 
				End Site
				{
					OFFSET 0.000000 -2.463878 4.653993
				}
			}
		}
	}
}
MOTION
Frames: 6
Frame Time: 0.022217
0.000000 43.528500 0.000000 0.000000 0.000000 0.000000 0.000000 0.000000 0.000000 0.000000 0.000000 0.000000 0.000000 0.000000 0.000000 0.000000 0.000000 0.000000 0.000000 0.000000 0.000000 0.000000 0.000000 0.000000 0.000000 0.000000 0.000000 0.000000 0.000000 0.000000 0.000000 0.000000 0.000000 0.000000 0.000000 0.000000 0.000000 0.000000 0.000000 0.000000 0.000000 0.000000 0.000000 0.000000 0.000000 0.000000 0.000000 0.000000 0.000000 0.000000 0.000000 0.000000 0.000000 0.000000 0.000000 0.000000 0.000000 0.000000 0.000000 0.000000 
0.000000 3.996296 -28.003838 -90.001877 0.000000 0.000000 23.538109 0.000000 0.000000 19.257391 -0.120320 -0.639379 17.998348 0.000000 0.000000 8.998567 0.000000 0.000000 8.607481 0.661943 0.337705 -76.760849 30.290161 0.731476 -75.001434 -0.002089 33.998486 -7.002601 0.199413 23.599224 -8.610972 -0.665439 0.337423 76.742165 -30.292879 0.734295 74.998512 -0.001709 34.000713 6.998461 -0.202121 23.599018 -0.822555 19.803667 0.504305 10.208740 -1.981909 -0.080483 13.611595 2.328721 5.489282 -0.821916 -19.807247 -0.507944 10.208662 1.978737 0.076688 13.611374 -2.332613 -5.492354 
0.000000 3.996296 -28.003838 -90.001877 0.000000 0.000000 22.923111 0.000000 0.000000 21.394621 -0.120251 -0.639308 17.472494 0.000000 0.000000 8.264699 0.000000 0.000000 8.249337 1.183995 -0.637996 -77.301750 30.377148 0.517300 -75.106567 -0.234959 33.997139 -6.483865 -0.020372 23.202662 -8.256853 -1.116175 -0.645578 77.245232 -30.374634 0.534816 75.097580 0.219516 33.998993 6.486806 0.010790 23.200684 -1.079865 19.713139 0.442731 10.603260 -1.865111 -0.101076 13.611595 2.328721 5.489282 -0.821915 -19.807245 -0.507944 10.468947 1.897819 0.090262 13.611374 -2.332613 -5.492354 
0.000000 3.996296 -28.003838 -90.001877 0.000000 0.000000 22.307913 0.000000 0.000000 23.540165 -0.120184 -0.639234 16.945850 0.000000 0.000000 7.528632 0.000000 0.000000 7.899660 1.712669 -1.611756 -77.843605 30.462391 0.301951 -75.211739 -0.467833 33.995365 -5.963408 -0.236638 22.803961 -7.910082 -1.573416 -1.627032 77.749100 -30.454872 0.334312 75.196693 0.440753 33.996895 5.973480 0.220211 22.800312 -1.336941 19.622343 0.381620 10.997771 -1.748158 -0.120865 13.611595 2.328721 5.489282 -0.821916 -19.807247 -0.507944 10.729217 1.816835 0.103469 13.611373 -2.332613 -5.492353 
0.000000 3.996296 -28.003838 -90.001877 0.000000 0.000000 21.692554 0.000000 0.000000 25.692568 -0.120120 -0.639158 16.418442 0.000000 0.000000 6.790416 0.000000 0.000000 7.558596 2.247704 -2.583493 -78.386391 30.545887 0.085451 -75.316887 -0.700718 33.993160 -5.441278 -0.449336 22.403179 -7.570807 -2.036941 -2.606827 78.253784 -30.533604 0.132808 75.295799 0.661995 33.994404 5.458526 0.426098 22.397938 -1.593781 19.531290 0.320973 11.392259 -1.631057 -0.139850 13.611595 2.328721 5.489282 -0.821916 -19.807247 -0.507944 10.989468 1.735788 0.116307 13.611375 -2.332613 -5.492354 
0.000000 3.996296 -28.003838 -90.001877 0.000000 0.000000 21.077074 0.000000 0.000000 27.850319 -0.120058 -0.639079 15.890290 0.000000 0.000000 6.050104 0.000000 0.000000 7.226283 2.788832 -3.553133 -78.930046 30.627621 -0.132165 -75.422073 -0.933605 33.990528 -4.917521 -0.658422 22.000359 -7.239176 -2.506519 -3.584858 78.759247 -30.610815 -0.069678 75.394936 0.883233 33.991535 4.941995 0.628404 21.993618 -1.850383 19.439974 0.260792 11.786722 -1.513818 -0.158028 13.611595 2.328721 5.489283 -0.821916 -19.807247 -0.507944 11.249701 1.654680 0.128777 13.611374 -2.332613 -5.492354 
